<svg xmlns="http://www.w3.org/2000/svg" xmlns:xlink="http://www.w3.org/1999/xlink" preserveAspectRatio="xMidYMid" width="17" height="14" viewBox="0 0 17 14">
  <defs>
    <style>
      .cls-1 {
        fill: #4b586d;
        fill-rule: evenodd;
      }
    </style>
  </defs>
  <path d="M16.400,11.515 L6.715,11.515 L3.497,13.886 C3.394,13.957 3.262,14.000 3.131,14.000 C3.043,14.000 2.955,13.986 2.867,13.943 C2.663,13.844 2.531,13.645 2.531,13.418 L2.531,11.501 L0.600,11.501 C0.278,11.501 0.000,11.246 0.000,10.919 L0.000,0.582 C0.000,0.256 0.263,-0.000 0.600,-0.000 L16.400,-0.000 C16.737,-0.000 17.000,0.256 17.000,0.582 L17.000,10.933 C17.000,11.260 16.737,11.515 16.400,11.515 ZM15.786,1.164 L1.200,1.164 L1.200,10.337 L3.131,10.337 C3.467,10.337 3.731,10.592 3.731,10.919 L3.731,12.239 L6.145,10.450 C6.247,10.379 6.379,10.337 6.510,10.337 L15.786,10.337 L15.786,1.164 ZM3.584,7.156 C3.584,6.830 3.848,6.574 4.184,6.574 L12.816,6.574 C13.152,6.574 13.416,6.830 13.416,7.156 C13.416,7.483 13.152,7.738 12.816,7.738 L4.184,7.738 C3.848,7.738 3.584,7.483 3.584,7.156 ZM12.816,4.927 L4.184,4.927 C3.848,4.927 3.584,4.671 3.584,4.345 C3.584,4.018 3.848,3.763 4.184,3.763 L12.816,3.763 C13.152,3.763 13.416,4.018 13.416,4.345 C13.416,4.671 13.152,4.927 12.816,4.927 Z" class="cls-1"/>
</svg>
