<svg xmlns="http://www.w3.org/2000/svg" xmlns:xlink="http://www.w3.org/1999/xlink" preserveAspectRatio="xMidYMid" width="16" height="16" viewBox="0 0 16 16">
  <defs>
    <style>
      .cls-1 {
        fill: #4b586d;
        fill-rule: evenodd;
      }
    </style>
  </defs>
  <path d="M14.047,2.720 L12.108,2.720 C12.098,1.218 10.873,-0.000 9.368,-0.000 L6.629,-0.000 C5.127,-0.000 3.902,1.218 3.892,2.720 L1.953,2.720 C0.875,2.720 0.000,3.595 0.000,4.673 L0.000,14.047 C0.000,15.125 0.875,16.000 1.953,16.000 L14.047,16.000 C15.125,16.000 16.000,15.125 16.000,14.047 L16.000,4.673 C16.000,3.595 15.122,2.720 14.047,2.720 ZM11.824,4.052 L11.824,14.668 L4.176,14.668 L4.176,4.052 L11.824,4.052 ZM6.629,1.332 L9.368,1.332 C10.136,1.332 10.762,1.953 10.772,2.717 L5.225,2.717 C5.234,1.953 5.861,1.332 6.629,1.332 ZM1.332,14.047 L1.332,4.673 C1.332,4.330 1.610,4.052 1.953,4.052 L2.844,4.052 L2.844,14.668 L1.953,14.668 C1.610,14.668 1.332,14.390 1.332,14.047 ZM14.664,14.047 C14.664,14.390 14.387,14.668 14.044,14.668 L13.156,14.668 L13.156,4.052 L14.047,4.052 C14.390,4.052 14.668,4.330 14.668,4.673 L14.668,14.047 L14.664,14.047 Z" class="cls-1"/>
</svg>
