<svg xmlns="http://www.w3.org/2000/svg" xmlns:xlink="http://www.w3.org/1999/xlink" preserveAspectRatio="xMidYMid" width="15" height="19" viewBox="0 0 15 19">
  <defs>
    <style>
      .cls-1 {
        fill: #4b586d;
        fill-rule: evenodd;
      }
    </style>
  </defs>
  <path d="M14.867,9.046 C14.863,9.074 14.847,9.157 14.816,9.301 C14.702,9.819 14.533,10.320 14.314,10.803 C13.506,12.734 11.726,15.702 7.833,18.880 C7.735,18.960 7.618,19.000 7.500,19.000 C7.382,19.000 7.265,18.960 7.167,18.880 C3.270,15.702 1.494,12.734 0.686,10.803 C0.467,10.320 0.298,9.815 0.184,9.301 C0.153,9.157 0.137,9.074 0.133,9.046 C0.043,8.576 0.000,8.094 0.000,7.616 C0.000,3.418 3.364,-0.000 7.496,-0.000 C11.628,-0.000 14.992,3.418 15.000,7.616 C15.000,8.094 14.953,8.576 14.867,9.046 ZM7.496,1.072 C3.948,1.072 1.059,4.007 1.059,7.612 C1.059,8.030 1.098,8.445 1.176,8.855 C1.176,8.867 1.180,8.875 1.180,8.883 C1.184,8.902 1.192,8.962 1.215,9.054 C1.215,9.058 1.215,9.058 1.215,9.062 C1.317,9.508 1.462,9.946 1.651,10.361 C1.655,10.364 1.655,10.372 1.658,10.376 C2.392,12.141 3.999,14.834 7.496,17.769 C10.993,14.834 12.601,12.141 13.334,10.376 C13.338,10.372 13.338,10.364 13.342,10.361 C13.534,9.942 13.679,9.508 13.777,9.062 C13.777,9.058 13.777,9.058 13.777,9.054 C13.796,8.962 13.808,8.902 13.812,8.883 C13.812,8.875 13.816,8.867 13.816,8.859 C13.894,8.452 13.934,8.034 13.934,7.612 C13.934,4.007 11.044,1.072 7.496,1.072 ZM7.496,12.535 C4.873,12.535 2.737,10.364 2.737,7.700 C2.737,5.035 4.873,2.864 7.496,2.864 C10.119,2.864 12.256,5.035 12.256,7.700 C12.256,10.364 10.119,12.535 7.496,12.535 ZM7.496,3.939 C5.457,3.939 3.795,5.628 3.795,7.700 C3.795,9.771 5.453,11.460 7.496,11.460 C9.539,11.460 11.197,9.771 11.197,7.700 C11.197,5.628 9.535,3.939 7.496,3.939 Z" class="cls-1"/>
</svg>
