<svg xmlns="http://www.w3.org/2000/svg" xmlns:xlink="http://www.w3.org/1999/xlink" preserveAspectRatio="xMidYMid" width="18" height="19" viewBox="0 0 18 19">
  <defs>
    <style>
      .cls-1 {
        fill: #4b586d;
        fill-rule: evenodd;
      }
    </style>
  </defs>
  <path d="M9.745,8.388 C9.555,8.204 9.555,7.903 9.745,7.718 L15.099,2.509 L14.696,2.553 C14.428,2.582 14.189,2.394 14.159,2.134 C14.129,1.874 14.322,1.640 14.590,1.611 L16.366,1.418 C16.458,1.406 16.557,1.420 16.645,1.461 C16.821,1.543 16.929,1.719 16.929,1.907 L16.929,1.907 C16.929,1.907 16.929,1.907 16.929,1.908 C16.929,1.919 16.919,1.929 16.918,1.940 L16.710,3.676 C16.680,3.937 16.440,4.124 16.172,4.095 C15.905,4.065 15.712,3.831 15.742,3.571 L15.787,3.179 L10.434,8.389 C10.339,8.481 10.214,8.527 10.089,8.527 C9.965,8.527 9.840,8.481 9.745,8.388 ZM1.912,3.202 C1.991,1.172 3.636,0.142 5.211,0.004 C5.286,-0.003 5.668,0.000 5.768,0.011 C6.251,0.062 6.738,0.197 7.182,0.418 C7.268,0.461 7.496,0.590 7.524,0.611 C8.340,1.133 8.946,1.990 8.992,3.202 C9.060,4.961 8.386,6.381 7.145,7.098 C6.623,7.400 6.037,7.551 5.452,7.551 C4.867,7.551 4.282,7.400 3.760,7.098 C2.518,6.381 1.845,4.960 1.912,3.202 ZM4.257,6.283 C4.994,6.709 5.910,6.709 6.647,6.283 C7.573,5.748 8.073,4.638 8.019,3.238 C7.995,2.627 7.778,2.145 7.445,1.782 C6.935,2.794 5.861,3.469 4.535,3.564 C4.267,3.583 4.033,3.387 4.014,3.126 C3.994,2.865 4.195,2.638 4.464,2.619 C5.303,2.559 6.270,2.154 6.642,1.211 C6.272,1.044 5.860,0.954 5.452,0.938 C4.214,0.986 2.944,1.715 2.886,3.238 C2.832,4.638 3.332,5.748 4.257,6.283 ZM18.000,9.664 L18.000,18.547 C18.000,18.809 17.780,19.000 17.511,19.000 L9.347,19.000 C9.078,19.000 8.845,18.809 8.845,18.547 L8.845,14.648 C8.845,14.386 9.078,14.166 9.347,14.166 L12.525,14.166 C12.794,14.166 13.033,14.386 13.033,14.648 L13.033,18.052 L14.542,18.052 L14.542,12.508 L12.351,12.508 L12.351,12.907 C12.351,13.168 12.133,13.380 11.864,13.380 C11.595,13.380 11.377,13.168 11.377,12.907 L11.377,12.053 C11.377,11.791 11.571,11.560 11.840,11.560 L15.018,11.560 C15.287,11.560 15.516,11.791 15.516,12.053 L15.516,18.052 L17.026,18.052 L17.026,10.138 L14.835,10.138 L14.835,10.287 C14.835,10.549 14.617,10.761 14.348,10.761 C14.079,10.761 13.861,10.549 13.861,10.287 L13.861,9.664 C13.861,9.402 14.064,9.190 14.333,9.190 L17.511,9.190 C17.780,9.190 18.000,9.402 18.000,9.664 ZM12.059,15.114 L9.819,15.114 L9.819,18.052 L12.059,18.052 L12.059,15.114 ZM9.467,12.569 C9.731,12.522 9.906,12.275 9.858,12.018 L9.778,11.594 C9.377,9.487 7.335,8.527 5.480,8.527 C5.478,8.527 5.476,8.527 5.475,8.527 L5.468,8.527 C5.464,8.527 5.460,8.527 5.455,8.527 L5.455,8.527 C5.451,8.527 5.448,8.530 5.444,8.530 C3.590,8.541 1.551,9.490 1.150,11.596 L0.008,17.626 C-0.018,17.764 0.020,17.911 0.113,18.019 C0.205,18.128 0.343,18.194 0.487,18.194 L6.935,18.194 C7.204,18.194 7.422,17.982 7.422,17.720 C7.422,17.459 7.204,17.246 6.935,17.246 L1.072,17.246 L2.108,11.773 C2.409,10.194 4.013,9.484 5.470,9.483 C6.925,9.488 8.520,10.195 8.820,11.770 L8.900,12.190 C8.949,12.447 9.202,12.617 9.467,12.569 ZM5.976,11.702 C5.707,11.702 5.489,11.914 5.489,12.176 C5.489,12.437 5.707,12.649 5.976,12.649 L6.926,12.649 C7.195,12.649 7.413,12.437 7.413,12.175 C7.413,11.914 7.194,11.701 6.926,11.701 L5.976,11.702 Z" class="cls-1"/>
</svg>
