<svg xmlns="http://www.w3.org/2000/svg" xmlns:xlink="http://www.w3.org/1999/xlink" preserveAspectRatio="xMidYMid" width="34" height="34" viewBox="0 0 34 34">
  <defs>
    <style>
      .cls-1 {
        fill: #4b586d;
        fill-rule: evenodd;
      }
    </style>
  </defs>
  <path d="M17.000,-0.000 C26.374,-0.000 34.000,7.626 34.000,17.000 C34.000,21.724 32.010,26.274 28.540,29.484 C28.259,29.743 27.821,29.725 27.562,29.445 C27.302,29.165 27.319,28.727 27.600,28.468 C30.788,25.519 32.616,21.340 32.616,17.000 C32.616,8.389 25.611,1.384 17.000,1.384 C8.389,1.384 1.384,8.389 1.384,17.000 C1.384,25.611 8.389,32.616 17.000,32.616 C17.382,32.616 17.692,32.926 17.692,33.308 C17.692,33.690 17.382,34.000 17.000,34.000 C7.626,34.000 0.000,26.374 0.000,17.000 C0.000,7.626 7.626,-0.000 17.000,-0.000 Z" class="cls-1"/>
</svg>
