<svg xmlns="http://www.w3.org/2000/svg" xmlns:xlink="http://www.w3.org/1999/xlink" preserveAspectRatio="xMidYMid" width="44" height="44" viewBox="0 0 44 44">
  <defs>
    <style>
      .cls-1 {
        fill: #4b586d;
        fill-rule: evenodd;
      }
    </style>
  </defs>
  <path d="M25.014,23.897 L32.063,30.797 C32.416,31.143 32.423,31.710 32.077,32.063 C31.901,32.242 31.669,32.332 31.437,32.332 C31.211,32.332 30.985,32.247 30.810,32.077 L23.761,25.177 C23.408,24.831 23.402,24.264 23.748,23.911 C24.094,23.558 24.660,23.551 25.014,23.897 ZM18.681,19.947 L11.930,13.196 C11.580,12.847 11.580,12.280 11.930,11.930 C12.280,11.580 12.847,11.580 13.196,11.930 L19.947,18.681 C20.297,19.030 20.297,19.597 19.947,19.947 C19.772,20.122 19.543,20.209 19.314,20.209 C19.085,20.209 18.855,20.122 18.681,19.947 ZM32.070,11.930 C32.420,12.280 32.420,12.847 32.070,13.196 L13.196,32.070 C13.021,32.245 12.792,32.332 12.563,32.332 C12.334,32.332 12.105,32.245 11.930,32.070 C11.580,31.720 11.580,31.153 11.930,30.804 L30.804,11.930 C31.153,11.580 31.720,11.580 32.070,11.930 ZM42.526,29.934 C42.347,30.395 41.829,30.624 41.368,30.446 C40.906,30.268 40.677,29.749 40.855,29.288 C41.754,26.965 42.209,24.513 42.209,22.000 C42.209,10.857 33.143,1.791 22.000,1.791 C10.857,1.791 1.791,10.857 1.791,22.000 C1.791,33.143 10.857,42.209 22.000,42.209 C27.249,42.209 32.222,40.207 36.004,36.570 C36.361,36.227 36.928,36.239 37.270,36.595 C37.613,36.951 37.602,37.518 37.245,37.861 C33.128,41.820 27.714,44.000 22.000,44.000 C9.869,44.000 -0.000,34.131 -0.000,22.000 C-0.000,9.869 9.869,0.000 22.000,0.000 C34.131,0.000 44.000,9.869 44.000,22.000 C44.000,24.735 43.504,27.404 42.526,29.934 Z" class="cls-1"/>
</svg>
