<svg xmlns="http://www.w3.org/2000/svg" xmlns:xlink="http://www.w3.org/1999/xlink" preserveAspectRatio="xMidYMid" width="43" height="49" viewBox="0 0 43 49">
  <defs>
    <style>
      .cls-1 {
        fill: #59d556;
        fill-rule: evenodd;
      }
    </style>
  </defs>
  <path d="M38.850,17.066 C38.124,16.617 37.170,16.837 36.718,17.557 C36.267,18.278 36.488,19.226 37.213,19.675 C38.900,20.721 39.907,22.525 39.907,24.500 C39.907,26.476 38.900,28.280 37.213,29.326 L11.842,45.047 C10.052,46.156 7.882,46.211 6.038,45.194 C4.194,44.177 3.093,42.318 3.093,40.222 L3.093,8.778 C3.093,6.682 4.194,4.824 6.038,3.806 C7.882,2.789 10.052,2.844 11.842,3.953 L26.611,13.105 C27.336,13.554 28.290,13.335 28.742,12.614 C29.194,11.894 28.973,10.946 28.248,10.496 L13.479,1.344 C10.721,-0.364 7.379,-0.449 4.537,1.118 C1.696,2.685 -0.000,5.549 -0.000,8.778 L-0.000,40.222 C-0.000,43.452 1.696,46.315 4.537,47.882 C5.891,48.628 7.357,49.000 8.821,49.000 C10.430,49.000 12.035,48.550 13.479,47.656 L38.850,31.934 C41.449,30.323 43.000,27.544 43.000,24.500 C43.000,21.456 41.449,18.677 38.850,17.066 Z" class="cls-1"/>
</svg>
