<svg xmlns="http://www.w3.org/2000/svg" xmlns:xlink="http://www.w3.org/1999/xlink" preserveAspectRatio="xMidYMid" width="18" height="18" viewBox="0 0 18 18">
  <defs>
    <style>
      .cls-1 {
        fill: #4b586d;
        fill-rule: evenodd;
      }
    </style>
  </defs>
  <path d="M17.111,0.887 C16.570,0.346 15.824,0.033 15.011,0.003 C14.238,-0.027 13.447,0.189 12.731,0.630 C12.414,0.824 12.313,1.238 12.507,1.552 C12.701,1.869 13.115,1.970 13.429,1.775 C14.403,1.179 15.526,1.205 16.160,1.839 C16.533,2.212 16.705,2.753 16.641,3.361 C16.574,4.022 16.249,4.671 15.727,5.194 C15.205,5.716 14.552,6.040 13.895,6.108 C13.287,6.167 12.746,5.996 12.373,5.626 C12.130,5.384 11.809,5.253 11.470,5.253 C11.127,5.253 10.806,5.387 10.563,5.626 C10.321,5.869 10.190,6.190 10.190,6.533 C10.190,6.877 10.324,7.197 10.567,7.440 C10.809,7.683 11.130,7.813 11.470,7.813 C11.813,7.813 12.134,7.679 12.376,7.440 C12.429,7.388 12.477,7.332 12.518,7.272 C12.873,7.399 13.253,7.466 13.656,7.466 C13.779,7.466 13.906,7.458 14.033,7.447 C14.044,7.447 14.056,7.444 14.067,7.444 L14.182,9.119 C14.209,9.500 14.067,9.873 13.798,10.145 L7.541,16.396 C7.190,16.746 6.616,16.746 6.265,16.396 L1.604,11.735 C1.433,11.563 1.340,11.336 1.340,11.097 C1.340,10.854 1.433,10.630 1.604,10.459 L7.858,4.205 C8.127,3.936 8.500,3.794 8.880,3.820 L14.436,4.190 C14.805,4.216 15.126,3.936 15.152,3.563 C15.179,3.193 14.899,2.872 14.526,2.846 L8.970,2.477 C8.205,2.425 7.451,2.708 6.910,3.253 L0.657,9.507 C0.231,9.933 0.000,10.496 0.000,11.097 C0.000,11.698 0.235,12.261 0.657,12.686 L5.313,17.343 C5.750,17.780 6.328,18.000 6.903,18.000 C7.477,18.000 8.052,17.780 8.492,17.343 L14.746,11.089 C15.291,10.545 15.574,9.791 15.522,9.022 L15.388,7.059 C15.858,6.835 16.294,6.526 16.682,6.141 C17.421,5.402 17.884,4.462 17.981,3.496 C18.082,2.477 17.772,1.552 17.111,0.887 Z" class="cls-1"/>
</svg>
