<svg xmlns="http://www.w3.org/2000/svg" xmlns:xlink="http://www.w3.org/1999/xlink" preserveAspectRatio="xMidYMid" width="15" height="20" viewBox="0 0 15 20">
  <defs>
    <style>
      .cls-1 {
        fill: #4b586d;
        fill-rule: evenodd;
      }
    </style>
  </defs>
  <path d="M7.500,-0.001 C3.364,-0.001 -0.001,3.472 -0.001,7.742 C-0.001,10.525 1.426,13.057 3.749,14.441 L3.749,15.170 C3.372,15.465 3.124,15.927 3.124,16.452 C3.124,16.817 3.246,17.150 3.444,17.420 C3.246,17.690 3.124,18.023 3.124,18.388 C3.124,19.277 3.825,20.001 4.687,20.001 L10.313,20.001 C11.175,20.001 11.875,19.277 11.875,18.388 C11.875,18.023 11.753,17.690 11.555,17.420 C11.754,17.149 11.875,16.817 11.875,16.452 C11.875,15.927 11.628,15.464 11.250,15.169 L11.250,14.440 C13.574,13.056 15.001,10.525 15.001,7.741 C15.001,3.472 11.636,-0.001 7.500,-0.001 ZM10.313,18.710 L4.687,18.710 C4.515,18.710 4.375,18.565 4.375,18.387 C4.375,18.210 4.515,18.065 4.687,18.065 L10.313,18.065 C10.485,18.065 10.625,18.210 10.625,18.387 C10.626,18.565 10.485,18.710 10.313,18.710 ZM10.313,16.774 L4.687,16.774 C4.515,16.774 4.375,16.629 4.375,16.452 C4.375,16.274 4.515,16.129 4.687,16.129 L10.313,16.129 C10.485,16.129 10.625,16.274 10.625,16.452 C10.625,16.629 10.485,16.774 10.313,16.774 ZM10.340,13.483 L10.000,13.663 L10.000,14.839 L8.125,14.839 L8.125,10.231 C9.201,9.942 10.000,8.940 10.000,7.741 C10.000,6.318 8.879,5.161 7.500,5.161 C6.121,5.161 5.000,6.318 5.000,7.741 C5.000,8.940 5.799,9.942 6.875,10.231 L6.875,14.839 L5.000,14.839 L5.000,13.663 L4.660,13.483 C2.556,12.372 1.249,10.172 1.249,7.741 C1.249,4.184 4.053,1.289 7.500,1.289 C10.947,1.289 13.751,4.184 13.751,7.741 C13.751,10.172 12.444,12.372 10.340,13.483 ZM7.500,9.032 C6.811,9.032 6.250,8.453 6.250,7.742 C6.250,7.030 6.810,6.451 7.500,6.451 C8.189,6.451 8.750,7.030 8.750,7.742 C8.750,8.453 8.190,9.032 7.500,9.032 Z" class="cls-1"/>
</svg>
