<svg xmlns="http://www.w3.org/2000/svg" xmlns:xlink="http://www.w3.org/1999/xlink" preserveAspectRatio="xMidYMid" width="23" height="16" viewBox="0 0 23 16">
  <defs>
    <style>
      .cls-1 {
        fill: #4b586d;
        fill-rule: evenodd;
      }
    </style>
  </defs>
  <path d="M22.521,13.000 L19.704,13.000 L19.704,12.000 L21.980,12.000 C21.810,11.325 21.301,10.784 20.627,10.608 L18.738,10.115 C18.567,10.071 18.433,9.930 18.389,9.751 L18.174,8.853 C18.131,8.673 18.186,8.483 18.319,8.360 C18.752,7.955 19.050,7.327 19.095,6.722 C19.115,6.462 19.323,6.261 19.573,6.261 L19.690,5.323 C19.560,5.322 19.446,5.278 19.356,5.178 C19.267,5.079 19.231,4.960 19.237,4.824 L19.292,3.627 C19.298,3.503 19.348,3.386 19.432,3.298 L19.661,3.059 C19.728,2.984 19.835,2.866 19.599,2.491 C19.392,2.160 19.018,2.000 18.456,2.000 C18.109,2.000 17.812,2.047 17.543,2.143 C17.291,2.232 17.020,2.093 16.935,1.833 C16.848,1.572 16.982,1.287 17.232,1.198 C17.602,1.065 18.002,1.001 18.457,1.001 C19.575,1.001 20.133,1.514 20.402,1.944 C20.966,2.844 20.612,3.466 20.350,3.757 L20.242,3.870 L20.212,4.501 C20.289,4.551 20.358,4.613 20.418,4.685 C20.593,4.894 20.674,5.172 20.640,5.448 L20.526,6.404 C20.485,6.742 20.281,7.023 20.003,7.163 C19.885,7.799 19.589,8.411 19.170,8.887 L19.249,9.219 L20.859,9.639 C22.119,9.968 23.000,11.144 23.000,12.500 C23.000,12.776 22.785,13.000 22.521,13.000 ZM16.380,11.774 C18.021,12.202 19.167,13.733 19.167,15.499 C19.167,15.775 18.952,15.999 18.687,15.999 L4.312,16.000 C4.185,16.000 4.063,15.947 3.973,15.854 C3.883,15.761 3.833,15.633 3.833,15.500 C3.833,13.734 4.979,12.202 6.620,11.774 L8.917,11.175 L9.089,10.460 C8.522,9.820 8.124,8.982 7.976,8.123 C7.571,7.992 7.260,7.623 7.206,7.165 L7.049,5.861 C7.010,5.533 7.108,5.204 7.317,4.956 C7.419,4.835 7.544,4.739 7.683,4.673 C7.639,4.269 7.583,3.709 7.583,3.436 C7.583,2.178 7.944,0.734 10.723,0.657 C11.686,-0.000 12.701,-0.000 13.144,-0.000 C14.306,-0.000 15.149,0.405 15.651,1.204 C16.355,2.327 15.921,3.094 15.599,3.451 L15.407,3.652 L15.358,4.694 C15.482,4.760 15.594,4.850 15.687,4.962 C15.893,5.209 15.989,5.536 15.949,5.861 L15.793,7.165 C15.742,7.594 15.466,7.945 15.099,8.095 C14.952,8.994 14.531,9.865 13.926,10.520 L14.083,11.175 L16.380,11.774 ZM13.074,9.989 C13.696,9.407 14.124,8.505 14.191,7.635 C14.211,7.375 14.419,7.175 14.669,7.175 C14.773,7.175 14.835,7.118 14.845,7.042 L15.001,5.737 C15.007,5.682 14.985,5.643 14.966,5.620 C14.950,5.601 14.914,5.568 14.857,5.568 C14.727,5.567 14.603,5.510 14.514,5.411 C14.425,5.312 14.378,5.180 14.384,5.044 L14.459,3.412 C14.465,3.288 14.515,3.170 14.599,3.082 L14.912,2.756 C15.022,2.634 15.246,2.385 14.849,1.753 C14.532,1.247 13.974,1.001 13.144,1.001 C12.742,1.001 11.902,1.001 11.154,1.560 C11.074,1.620 10.978,1.652 10.880,1.653 C8.543,1.677 8.543,2.652 8.543,3.435 C8.543,3.745 8.646,4.672 8.686,5.003 C8.704,5.146 8.661,5.289 8.570,5.396 C8.479,5.504 8.349,5.565 8.211,5.565 C8.088,5.565 8.053,5.597 8.037,5.616 C8.020,5.636 7.994,5.677 8.001,5.736 L8.156,7.040 C8.165,7.116 8.227,7.173 8.301,7.173 L8.403,7.173 C8.653,7.173 8.861,7.373 8.881,7.633 C8.946,8.490 9.345,9.354 9.947,9.943 C10.073,10.067 10.127,10.253 10.084,10.429 L9.777,11.708 C9.735,11.887 9.600,12.027 9.428,12.072 L6.852,12.744 C5.797,13.019 5.019,13.912 4.834,14.999 L18.167,15.000 C17.982,13.913 17.204,13.019 16.149,12.744 L13.573,12.072 C13.401,12.028 13.267,11.887 13.224,11.709 L12.930,10.483 C12.887,10.303 12.942,10.113 13.074,9.989 ZM6.534,2.025 C6.145,2.068 5.838,2.183 5.569,2.384 C5.489,2.444 5.392,2.476 5.295,2.477 C3.707,2.493 3.707,3.082 3.707,3.651 C3.707,3.846 3.771,4.449 3.812,4.784 C3.830,4.927 3.787,5.070 3.696,5.177 C3.605,5.285 3.475,5.346 3.337,5.346 L3.424,6.278 C3.674,6.278 3.936,6.459 3.956,6.719 C4.001,7.315 4.278,7.915 4.698,8.325 C4.824,8.449 4.877,8.635 4.835,8.811 L4.611,9.749 C4.568,9.928 4.433,10.068 4.262,10.113 L2.373,10.606 C1.700,10.782 1.191,11.323 1.020,11.997 L3.297,12.000 C3.561,12.000 3.776,12.224 3.776,12.500 C3.776,12.776 3.561,13.000 3.297,13.000 L0.479,13.000 C0.215,13.000 0.000,12.776 0.000,12.500 C0.000,11.144 0.881,9.967 2.141,9.638 L3.751,9.218 L3.841,8.840 C3.447,8.375 3.167,7.785 3.051,7.176 C2.732,7.040 2.516,6.752 2.473,6.403 L2.358,5.446 C2.325,5.168 2.408,4.887 2.585,4.677 C2.653,4.599 2.728,4.533 2.812,4.482 C2.781,4.194 2.748,3.836 2.748,3.651 C2.748,2.749 2.999,1.554 5.140,1.481 C5.514,1.234 5.939,1.086 6.433,1.031 C6.699,1.001 6.933,1.201 6.959,1.475 C6.987,1.749 6.797,1.996 6.534,2.025 Z" class="cls-1"/>
</svg>
