<svg xmlns="http://www.w3.org/2000/svg" xmlns:xlink="http://www.w3.org/1999/xlink" preserveAspectRatio="xMidYMid" width="15" height="16.969" viewBox="0 0 15 16.969">
  <defs>
    <style>
      .cls-1 {
        fill: #4b586d;
        fill-rule: evenodd;
      }
    </style>
  </defs>
  <path d="M13.552,5.908 C13.299,5.752 12.966,5.829 12.809,6.078 C12.651,6.328 12.728,6.656 12.981,6.812 C13.570,7.174 13.921,7.799 13.921,8.483 C13.921,9.168 13.570,9.792 12.981,10.154 L4.131,15.600 C3.506,15.984 2.750,16.003 2.106,15.651 C1.463,15.298 1.079,14.655 1.079,13.929 L1.079,3.037 C1.079,2.311 1.463,1.668 2.106,1.315 C2.750,0.963 3.506,0.982 4.131,1.366 L9.283,4.536 C9.536,4.692 9.869,4.616 10.026,4.366 C10.184,4.116 10.107,3.788 9.854,3.633 L4.702,0.462 C3.740,-0.129 2.574,-0.159 1.583,0.384 C0.592,0.927 -0.000,1.919 -0.000,3.037 L-0.000,13.929 C-0.000,15.047 0.592,16.039 1.583,16.582 C2.055,16.840 2.566,16.969 3.077,16.969 C3.638,16.969 4.198,16.813 4.702,16.503 L13.552,11.058 C14.459,10.500 15.000,9.537 15.000,8.483 C15.000,7.428 14.459,6.466 13.552,5.908 Z" class="cls-1"/>
</svg>
